<?xml version="1.0" encoding="UTF-8" standalone="no"?>
<svg
   xmlns:dc="http://purl.org/dc/elements/1.1/"
   xmlns:cc="http://creativecommons.org/ns#"
   xmlns:rdf="http://www.w3.org/1999/02/22-rdf-syntax-ns#"
   xmlns:svg="http://www.w3.org/2000/svg"
   xmlns="http://www.w3.org/2000/svg"
   xmlns:sodipodi="http://sodipodi.sourceforge.net/DTD/sodipodi-0.dtd"
   xmlns:inkscape="http://www.inkscape.org/namespaces/inkscape"
   version="1.1"
   id="svg2"
   viewBox="0 0 311.27679 128.85156"
   height="36.364773mm"
   width="87.849228mm"
   inkscape:version="0.91 r13725"
   sodipodi:docname="swagarch-large-logo.svg">
  <sodipodi:namedview
     pagecolor="#ffffff"
     bordercolor="#666666"
     borderopacity="1"
     objecttolerance="10"
     gridtolerance="10"
     guidetolerance="10"
     inkscape:pageopacity="0"
     inkscape:pageshadow="2"
     inkscape:window-width="1920"
     inkscape:window-height="1023"
     id="namedview14"
     showgrid="false"
     inkscape:zoom="0.92843414"
     inkscape:cx="-61.932229"
     inkscape:cy="64.425779"
     inkscape:window-x="0"
     inkscape:window-y="29"
     inkscape:window-maximized="1"
     inkscape:current-layer="svg2" />
  <title
     id="title5309">SwagArch Large Logo</title>
  <defs
     id="defs4">
    <linearGradient
       id="linearGradient7878">
      <stop
         offset="0"
         style="stop-color:#ff7f2a"
         id="stop7880" />
      <stop
         offset="1"
         style="stop-color:#ffcc00;stop-opacity:0"
         id="stop7882" />
    </linearGradient>
  </defs>
  <g
     transform="translate(-6.2562569,-3.8239482)"
     id="g5274">
    <path
       style="opacity:1;fill:#241c1c;fill-opacity:1;stroke:none;stroke-width:0.5;stroke-linejoin:miter;stroke-opacity:1"
       d="M 35.373953,3.8239482 317.53306,33.965638 288.41537,132.67551 6.2562569,102.53381 Z"
       id="background" />
    <g
       style="font-style:normal;font-weight:normal;font-size:40px;line-height:125%;font-family:sans-serif;letter-spacing:0px;word-spacing:0px;fill:#1793d1;fill-opacity:1;stroke:none;stroke-width:1px;stroke-linecap:butt;stroke-linejoin:miter;stroke-opacity:1"
       id="LogoSign"
       transform="matrix(1.8437475,0,0,1.8437475,-44.370919,-67.575632)">
      <path
         d="m 157.31445,83.489792 c 0,-0.794271 0.625,-1.5625 1.875,-2.304687 1.26302,-0.742188 2.89063,-1.386719 4.88282,-1.933594 3.60677,-0.989583 7.36328,-1.751302 11.26953,-2.285156 0.45573,-1.276042 0.8789,-2.49349 1.26953,-3.652344 -1.39323,1.028646 -2.95573,1.835938 -4.6875,2.421875 -1.73177,0.585937 -3.30078,0.878906 -4.70703,0.878906 -1.40625,0 -2.59115,-0.117187 -3.55469,-0.351562 -0.96354,-0.247396 -1.85547,-0.631511 -2.67578,-1.152344 -1.75781,-1.119792 -2.63672,-2.96224 -2.63672,-5.527344 0,-2.578125 0.6901,-4.895833 2.07031,-6.953125 1.38021,-2.057291 3.2487,-3.652343 5.60547,-4.785156 2.36979,-1.145833 5.05209,-1.71875 8.04688,-1.71875 2.99479,0 5.31249,0.651042 6.95312,1.953125 1.18489,-0.364583 2.55859,-0.683594 4.12109,-0.957031 1.57553,-0.286459 2.806,-0.429688 3.69141,-0.429688 0.89844,0 1.65365,0.214844 2.26563,0.644531 0.625,0.429688 0.9375,0.92448 0.9375,1.484375 0,0.546875 -0.19531,1.380209 -0.58594,2.5 -0.37761,1.119792 -1.03516,2.988282 -1.97266,5.605469 -0.9375,2.617187 -1.82943,5.247396 -2.67578,7.890625 4.13903,-1.004579 7.57369,-0.404868 -0.82031,2.636719 l -0.52735,1.738281 c -0.36458,1.223959 -1.02864,2.304688 -1.99218,3.242188 -0.96355,0.950521 -2.06381,1.705729 -3.30078,2.265625 -1.23698,0.559895 -2.65625,1.015624 -4.25782,1.367187 -2.78645,0.625 -5.93098,0.9375 -9.43359,0.9375 -6.10677,0 -9.16016,-1.171875 -9.16016,-3.515625 z m 18.53516,-12.597656 c 1.01563,-0.820313 1.90104,-2.096354 2.65625,-3.828125 0.76823,-1.731771 1.15234,-3.13151 1.15234,-4.199219 0,-1.067708 -0.18229,-1.803385 -0.54687,-2.207031 -0.35157,-0.403646 -1.05469,-0.605469 -2.10938,-0.605469 -1.04167,0 -2.19401,0.455729 -3.45703,1.367188 -1.25,0.898437 -2.27213,2.050781 -3.0664,3.457031 -0.78125,1.40625 -1.17188,2.695312 -1.17188,3.867187 0,1.171875 0.25391,2.02474 0.76172,2.558594 0.52083,0.520833 1.09375,0.78125 1.71875,0.78125 0.63802,0 1.11328,-0.01953 1.42578,-0.05859 0.32552,-0.03906 0.74219,-0.149737 1.25,-0.332031 0.50781,-0.195313 0.97005,-0.46224 1.38672,-0.800785 z m -2.22656,10.898437 0.91797,-2.597656 c -5.82031,0.924479 -8.73047,2.246094 -8.73047,3.964844 0,0.507813 0.24088,0.911458 0.72265,1.210937 0.49479,0.3125 1.11328,0.46875 1.85547,0.46875 2.77344,0 4.51823,-1.015625 5.23438,-3.046875 z m -38.125,-9.121093 c 2.44791,0 4.49218,-1.875 6.13281,-5.625 0.75521,-1.71875 1.13281,-3.111979 1.13281,-4.179688 0,-1.067708 -0.18229,-1.803385 -0.54687,-2.207031 -0.35157,-0.403646 -1.05469,-0.605469 -2.10938,-0.605469 -1.04167,0 -2.17448,0.488281 -3.39844,1.464844 -1.21093,0.963541 -2.18749,2.180989 -2.92968,3.652344 -0.74219,1.471354 -1.11328,2.799479 -1.11328,3.984375 0,1.171875 0.26042,2.050781 0.78125,2.636718 0.52083,0.585938 1.20443,0.878907 2.05078,0.878907 z m 10.15625,-16.542969 8.94531,0.410156 c 0.33854,0 0.59245,0.104167 0.76172,0.3125 0.16927,0.195313 0.2539,0.416667 0.2539,0.664063 0,0.950521 -0.39713,2.467448 -1.1914,4.550781 -0.78125,2.070313 -1.56901,4.127604 -2.36328,6.171875 -0.78125,2.03125 -1.17188,3.378906 -1.17188,4.042969 0,0.651041 0.0947,1.070932 0.29297,1.25 0.20542,0.185563 0.60284,0.339973 1.17188,0.273437 4.08562,-0.477716 6.28626,0.109269 -2.40235,3.28125 -1.77028,0.646283 -3.73047,0.546875 -5.64453,0.546875 -3.19011,0 -5.11068,-1.015625 -5.76172,-3.046875 -2.03125,2.03125 -4.76562,3.046875 -8.20312,3.046875 -2.35677,0 -4.34896,-0.566406 -5.97657,-1.699219 -1.77083,-1.236979 -2.65625,-3.183593 -2.65625,-5.839843 0,-2.799479 0.82682,-5.377604 2.48047,-7.734375 1.8099,-2.617188 4.23178,-4.420574 7.26563,-5.410157 1.67969,-0.546875 3.48307,-0.820312 5.41015,-0.820312 2.95573,0 5.25391,0.729167 6.89454,2.1875 0.013,-0.07813 0.0195,-0.201823 0.0195,-0.371094 l -0.0195,-0.839844 c 0,-0.651041 0.63151,-0.976562 1.89453,-0.976562 z m -67.773441,0.625 10.332032,-0.214844 c 0.507812,0 0.761718,0.253906 0.761718,0.761719 0,0.299479 -0.15625,0.644531 -0.46875,1.035156 -1.119791,1.40625 -2.063802,3.001302 -2.832031,4.785156 -0.755208,1.783855 -1.132812,3.600261 -1.132812,5.449219 0,1.940104 0.305989,3.157552 0.917968,3.652344 0.260417,0.208333 0.592448,0.3125 0.996094,0.3125 0.846354,0 1.640625,-0.332031 2.382813,-0.996094 0.755208,-0.664063 1.393229,-1.503906 1.914062,-2.519531 0.533854,-1.015625 1.015625,-2.1875 1.445313,-3.515625 0.716145,-2.291667 1.236979,-4.772135 1.5625,-7.441406 0.02604,-0.3125 0.136717,-0.605469 0.332031,-0.878907 0.208333,-0.286458 0.533854,-0.429687 0.976562,-0.429687 l 10.332031,-0.214844 c 0.50781,0 0.76172,0.214844 0.76172,0.644531 0,0.338542 -0.15625,0.722657 -0.46875,1.152344 -2.64323,3.671875 -3.96484,7.220052 -3.96484,10.644531 0,2.239583 0.65755,3.359375 1.97265,3.359375 1.00261,0 1.9336,-0.423177 2.79297,-1.269531 0.85937,-0.846354 1.56901,-1.953125 2.12891,-3.320312 1.19791,-2.903646 1.79687,-6.132813 1.79687,-9.6875 0,-0.755209 0.4362,-1.191407 1.3086,-1.308594 0.28645,-0.03906 1.47786,-0.08463 3.57421,-0.136719 2.10938,-0.05209 3.46355,-0.07813 4.0625,-0.07813 0.59896,0 1.69866,-0.03329 1.86124,0.488857 0.12627,0.405532 1.78722,0.640587 -5.04483,9.901768 -1.52344,2.018229 -3.37891,3.893229 -5.56641,5.625 -2.17447,1.71875 -4.39452,3.079427 -6.66015,4.082031 -2.25261,0.989583 -4.257816,1.484375 -6.015627,1.484375 -1.132813,0 -2.246094,-0.494792 -3.339844,-1.484375 -1.080729,-0.989583 -1.953124,-2.246094 -2.617187,-3.769531 -1.992187,1.640625 -4.010417,2.96224 -6.054688,3.964844 -2.044271,0.989583 -3.834635,1.484375 -5.371093,1.484375 -2.148438,0 -3.912761,-0.93099 -5.292969,-2.792969 -1.380209,-1.861979 -2.070313,-4.296875 -2.070313,-7.304687 0,-1.276042 0.266927,-3.001303 0.800782,-5.175782 0.546875,-2.174479 1.184895,-3.860676 1.914062,-5.058593 0.299479,-0.481771 0.579427,-0.807292 0.839844,-0.976563 0.260417,-0.169271 0.638021,-0.253906 1.132812,-0.253901 z M 36.650391,75.32573 c -0.325521,-0.15625 -0.488282,-0.481771 -0.488282,-0.976563 0,-0.494791 0.397136,-1.549479 1.191407,-3.164062 0.794271,-1.627605 1.419271,-2.441407 1.875,-2.441407 0.260417,0 0.664062,0.182292 1.210937,0.546875 0.546875,0.351563 1.178386,0.78125 1.894531,1.289063 0.729167,0.507813 1.516927,1.009115 2.363282,1.503906 2.057291,1.223959 4.055989,1.835938 5.996093,1.835938 0.963542,0 1.653646,-0.195313 2.070313,-0.585938 0.416667,-0.390625 0.625,-0.78125 0.625,-1.171875 0,-0.403646 -0.221354,-0.852865 -0.664063,-1.347656 -0.442708,-0.507813 -1.022135,-1.028646 -1.738281,-1.5625 -0.703125,-0.533854 -1.484375,-1.09375 -2.34375,-1.679688 -0.859375,-0.598958 -1.71875,-1.230468 -2.578125,-1.894531 -0.859375,-0.664063 -1.640625,-1.328125 -2.34375,-1.992187 -1.601563,-1.510417 -2.402344,-2.981771 -2.402344,-4.414063 0,-1.015625 0.266927,-1.933593 0.800782,-2.753906 0.546875,-0.820313 1.236979,-1.484375 2.070312,-1.992188 0.846354,-0.507812 1.803385,-0.930989 2.871094,-1.269531 1.914063,-0.625 3.886719,-0.9375 5.917969,-0.9375 0.559895,0 0.976562,0.08463 1.25,0.253906 0.273437,0.169271 0.410156,0.364584 0.410156,0.585938 0,0.221354 -0.09766,0.559896 -0.292969,1.015625 -0.195313,0.442708 -0.292969,0.839843 -0.292969,1.191406 0,0.351563 0.234375,0.800781 0.703125,1.347656 0.481771,0.546875 1.100261,1.106771 1.855469,1.679688 0.755209,0.572917 1.588542,1.184896 2.5,1.835937 0.911459,0.651042 1.822917,1.341146 2.734375,2.070313 0.911459,0.729167 1.744792,1.471354 2.5,2.226562 1.705729,1.705729 2.558594,3.359375 2.558594,4.960938 0,1.588541 -0.416667,2.916666 -1.25,3.984375 -0.820313,1.067708 -1.966146,1.894531 -3.4375,2.480469 -1.471354,0.585937 -3.085937,1.009114 -4.84375,1.269531 -1.757813,0.273437 -3.89974,0.410156 -6.425781,0.410156 -2.526042,0 -5.3125,-0.260417 -8.359375,-0.78125 -3.033855,-0.533854 -5.013021,-1.041666 -5.9375,-1.523437 z m 32.34375,-19.121094 c -1.75818,-1.986024 -3.821615,-3.541667 -6.347657,-4.53125 -2.513021,-1.002604 -5.136718,-1.503906 -7.871093,-1.503906 -5.013021,0 -9.843751,0.94401 -14.492188,2.832031 -0.625,0.247396 -1.067708,0.371094 -1.328125,0.371094 -0.520833,0 -0.78125,-0.247396 -0.78125,-0.742188 0,-0.403646 0.345052,-0.885417 1.035156,-1.445312 0.703125,-0.559896 1.70573,-1.132813 3.007813,-1.71875 1.315104,-0.598959 2.799479,-1.152344 4.453125,-1.660157 3.776041,-1.158854 7.82552,-1.738281 12.148437,-1.738281 6.393229,0 11.218868,0.895869 14.472657,2.695313 0.18373,0.101608 0.254163,0.416392 0.234375,0.9375 -0.01928,0.507613 -0.247395,1.295572 -0.703125,2.363281 -0.455729,1.067708 -1.009115,2.057291 -1.660157,2.96875 -0.638021,0.911458 -1.187507,1.31847 -1.640625,1.367187 -0.154487,0.01661 -0.356108,-0.0019 -0.527343,-0.195312 z"
         style="font-style:normal;font-variant:normal;font-weight:normal;font-stretch:normal;font-family:'Sonsie One';-inkscape-font-specification:'Sonsie One';fill:#ffffff;fill-opacity:1"
         id="Swag" />
      <path
         d="m 137.09056,79.665739 5.15026,-0.03373 q 0.25864,0 0.41607,0.168677 0.16868,0.157433 0.16868,0.52852 0,0.37109 -0.46105,2.181551 -0.46105,1.799216 -1.03456,3.530962 1.47312,-0.629725 3.26108,-1.135755 1.78797,-0.517275 3.21611,-0.517275 1.07952,0 1.96789,0.595989 0.98957,0.663462 0.98957,2.012872 0,1.338169 -1.04581,3.609678 -1.04577,2.271516 -1.04577,2.901244 0,0.922089 0.88836,0.922089 1.75422,0 3.96952,-1.135753 0.33735,-0.17992 0.55099,-0.17992 0.46106,0 0.46106,0.416074 0,0.404819 -0.51727,0.730925 -0.50604,0.314858 -1.28194,0.685953 -0.77592,0.359849 -1.94541,0.798395 -2.73256,1.023312 -5.83621,1.023312 -3.10364,0 -3.10364,-1.529337 0,-0.989568 1.12452,-3.530957 1.13574,-2.552643 1.13574,-3.441006 0,-1.068285 -1.56307,-1.068285 -0.86587,0 -1.70925,0.269882 -1.85545,5.442634 -2.66509,8.535034 -0.0562,0.213655 -0.25864,0.31486 -0.19117,0.101203 -0.33735,0.101203 l -5.79123,0.123696 q -0.1237,0 -0.28114,-0.157422 -0.14618,-0.146195 -0.14618,-0.371093 0,-0.2249 0.71968,-2.260272 0.73095,-2.035356 1.59682,-4.41932 0.87712,-2.383958 1.5968,-4.959089 0.73093,-2.575128 0.73093,-3.83458 l -0.0112,-0.314862 q 0,-0.562256 1.09079,-0.562256 z m -15.36081,9.310945 c -0.34485,0.922097 -0.51727,1.769232 -0.51727,2.541392 0,0.772165 0.0787,1.349408 0.23614,1.731747 0.15743,0.374833 0.39357,0.663464 0.70845,0.865874 1.07203,0.674699 3.1936,0.712192 6.36473,0.112449 2.83216,-0.664202 3.62552,0.460418 -0.14619,1.810463 -1.85739,0.664828 -4.04824,0.730925 -6.40971,0.730925 -2.35397,0 -4.14196,-0.419814 -5.36391,-1.259448 -1.22197,-0.839636 -1.83295,-2.001629 -1.83295,-3.485977 0,-0.922105 0.19116,-1.791721 0.57349,-2.608865 0.38983,-0.817143 0.91837,-1.525586 1.58557,-2.125326 0.6747,-0.607236 1.4581,-1.132007 2.35021,-1.574314 1.78423,-0.884615 3.80836,-1.326922 6.07236,-1.326922 2.63887,0 4.49055,0.303618 5.55509,0.910854 0.11995,0.09746 0.17991,0.281126 0.17991,0.551008 0,0.262386 -0.11618,0.700946 -0.34859,1.31568 -0.23241,0.614733 -0.53976,1.184482 -0.92209,1.709256 -0.37484,0.524771 -0.71969,0.787152 -1.03455,0.787152 -0.31488,0 -0.56602,-0.168671 -0.75343,-0.506026 -0.18743,-0.337354 -0.34486,-0.610985 -0.47229,-0.820892 -0.12744,-0.217408 -0.30362,-0.472299 -0.52853,-0.76467 -0.22491,-0.292372 -0.43855,-0.513521 -0.64097,-0.663458 -0.19491,-0.149936 -0.4348,-0.281129 -0.71969,-0.393579 -0.28486,-0.112452 -0.63346,-0.168677 -1.04578,-0.168677 -0.40482,0 -0.81339,0.123695 -1.22572,0.371087 -0.40483,0.239894 -0.73844,0.55476 -1.00081,0.944588 -0.26239,0.382332 -0.48355,0.820892 -0.66347,1.315679 z m -18.8018,-4.228159 5.33017,-0.123696 q 0.29237,0 0.43855,0.179921 0.14619,0.168677 0.14619,0.314862 0,0.146187 -0.0787,0.483541 -0.0787,0.337352 -0.20242,0.820892 -0.12369,0.472297 -0.15743,0.607235 0.87712,-1.045793 2.19282,-1.844195 1.31566,-0.798403 2.31648,-0.798403 2.12532,0 2.12532,0.922098 0,0.910854 -0.5735,2.192793 -0.5735,1.2707 -1.07953,1.675523 -0.2474,0.17992 -0.60723,0.17992 -0.3486,0 -0.65222,-0.224899 -1.36066,-1.012063 -2.9687,-1.012063 -0.6185,0 -1.07954,0.08996 -0.43856,1.506845 -1.39439,4.430578 -0.95583,2.912472 -1.05704,3.249831 -0.16869,0.528515 -0.62973,0.528515 -1.63054,0 -3.49723,0.168674 -1.866676,0.179921 -2.147806,0.179921 -0.269886,0 -0.427317,-0.157422 -0.146184,-0.146194 -0.146184,-0.348603 0,-0.213655 0.472288,-1.506848 0.483546,-1.304429 1.057039,-2.800021 0.58475,-1.495605 1.05705,-3.283577 0.48353,-1.787967 0.48353,-2.934969 l -0.0112,-0.427314 q 0,-0.562255 1.09078,-0.562255 z M 90.771984,96.769534 q -3.744616,0 -3.744616,-2.485163 0,-1.416887 1.787967,-5.656286 1.787972,-4.250649 1.787972,-5.892433 0,-0.922099 -0.685948,-1.304432 -0.674709,-0.393578 -1.967894,-0.393578 -1.28194,0 -2.608863,0.224901 -1.326925,0.224902 -1.709256,0.224902 -0.371088,0 -0.371088,-0.337353 0,-0.43856 1.585555,-1.158246 3.047424,-1.394392 6.713329,-1.394392 2.901233,0 4.340611,1.045794 1.450613,1.045795 1.450613,3.396021 0,1.394393 -0.49478,3.497226 -0.494789,2.09159 -0.989569,3.935784 -0.483543,1.844201 -0.483543,2.530154 0,0.685945 0.258634,0.955834 0.326114,0.33735 1.259458,0.33735 0.573505,0 0.640965,0.123694 0.0787,0.123696 0.0787,0.258635 0,0.517279 -0.47229,0.843394 -1.787973,1.248194 -6.375972,1.248194 z m -6.544652,-8.141449 2.878748,-0.06748 q 0.787157,0 0.787157,0.461048 0,0.326111 -0.371087,0.517277 -1.304429,0.663458 -4.498041,0.84338 -0.910853,1.799212 -0.910853,3.159874 0,0.60724 0.157433,1.124509 0.157427,0.506035 0.157427,0.730934 0,0.595993 -0.75342,0.809648 -0.753419,0.20241 -2.215286,0.20241 -1.450618,0 -1.911666,-0.258634 -0.461049,-0.26988 -0.461049,-0.944589 0,-1.259449 0.730931,-2.777541 0.742176,-1.518091 1.889178,-2.901235 1.147001,-1.394397 2.54139,-2.732561 1.394396,-1.338167 2.710075,-2.305247 2.923724,-2.170304 3.980765,-2.170304 0.483537,0 0.483537,0.292373 0,0.292373 -0.472292,0.652216 -1.000814,0.730931 -2.395209,2.22653 -1.39439,1.495601 -2.485165,3.137384 l 0.157427,0 z"
         style="font-style:normal;font-variant:normal;font-weight:normal;font-stretch:normal;font-family:'Sonsie One';-inkscape-font-specification:'Sonsie One';fill:#1793d1;fill-opacity:1"
         id="Arch" />
    </g>
  </g>
  <metadata
     id="metadata5288">
    <rdf:RDF>
      <cc:Work
         rdf:about="">
        <dc:title>SwagArch Large Logo</dc:title>
        <cc:license
           rdf:resource="http://creativecommons.org/publicdomain/zero/1.0/" />
        <dc:date>04.05.2016</dc:date>
        <dc:creator>
          <cc:Agent>
            <dc:title>Mike Krüger</dc:title>
          </cc:Agent>
        </dc:creator>
        <dc:publisher>
          <cc:Agent>
            <dc:title>Mike Krüger</dc:title>
          </cc:Agent>
        </dc:publisher>
        <dc:description>Official Logo from SwagArch GNU / Linux</dc:description>
        <dc:format>image/svg+xml</dc:format>
        <dc:type
           rdf:resource="http://purl.org/dc/dcmitype/StillImage" />
        <dc:subject>
          <rdf:Bag>
            <rdf:li>Logo</rdf:li>
          </rdf:Bag>
        </dc:subject>
      </cc:Work>
      <cc:License
         rdf:about="http://creativecommons.org/publicdomain/zero/1.0/">
        <cc:permits
           rdf:resource="http://creativecommons.org/ns#Reproduction" />
        <cc:permits
           rdf:resource="http://creativecommons.org/ns#Distribution" />
        <cc:permits
           rdf:resource="http://creativecommons.org/ns#DerivativeWorks" />
      </cc:License>
    </rdf:RDF>
  </metadata>
</svg>
