<?xml version="1.0" encoding="UTF-8" standalone="no"?>
<svg
   xmlns:dc="http://purl.org/dc/elements/1.1/"
   xmlns:cc="http://creativecommons.org/ns#"
   xmlns:rdf="http://www.w3.org/1999/02/22-rdf-syntax-ns#"
   xmlns:svg="http://www.w3.org/2000/svg"
   xmlns="http://www.w3.org/2000/svg"
   xmlns:sodipodi="http://sodipodi.sourceforge.net/DTD/sodipodi-0.dtd"
   xmlns:inkscape="http://www.inkscape.org/namespaces/inkscape"
   version="1.1"
   id="svg5330"
   viewBox="0 0 256.00001 256.00001"
   height="256"
   width="256"
   inkscape:version="0.91 r13725"
   sodipodi:docname="swagarch-logo.svg">
  <sodipodi:namedview
     pagecolor="#ffffff"
     bordercolor="#666666"
     borderopacity="1"
     objecttolerance="10"
     gridtolerance="10"
     guidetolerance="10"
     inkscape:pageopacity="0"
     inkscape:pageshadow="2"
     inkscape:window-width="1920"
     inkscape:window-height="1023"
     id="namedview11"
     showgrid="false"
     inkscape:zoom="0.921875"
     inkscape:cx="128"
     inkscape:cy="128"
     inkscape:window-x="0"
     inkscape:window-y="29"
     inkscape:window-maximized="1"
     inkscape:current-layer="svg5330" />
  <title
     id="title5957">SwagArch Logo</title>
  <defs
     id="defs5332" />
  <metadata
     id="metadata5335">
    <rdf:RDF>
      <cc:Work
         rdf:about="">
        <dc:format>image/svg+xml</dc:format>
        <dc:type
           rdf:resource="http://purl.org/dc/dcmitype/StillImage" />
        <dc:title>SwagArch Logo</dc:title>
        <cc:license
           rdf:resource="http://creativecommons.org/publicdomain/zero/1.0/" />
        <dc:date>04.05.2016</dc:date>
        <dc:creator>
          <cc:Agent>
            <dc:title>Mike Krüger</dc:title>
          </cc:Agent>
        </dc:creator>
        <dc:publisher>
          <cc:Agent>
            <dc:title>Mike Krüger</dc:title>
          </cc:Agent>
        </dc:publisher>
        <dc:description>Official Logo from SwagArch GNU / Linux</dc:description>
        <dc:subject>
          <rdf:Bag>
            <rdf:li>Logo</rdf:li>
          </rdf:Bag>
        </dc:subject>
      </cc:Work>
      <cc:License
         rdf:about="http://creativecommons.org/publicdomain/zero/1.0/">
        <cc:permits
           rdf:resource="http://creativecommons.org/ns#Reproduction" />
        <cc:permits
           rdf:resource="http://creativecommons.org/ns#Distribution" />
        <cc:permits
           rdf:resource="http://creativecommons.org/ns#DerivativeWorks" />
      </cc:License>
    </rdf:RDF>
  </metadata>
  <g
     transform="translate(-0.65832823,-0.70382936)"
     id="layer1">
    <g
       transform="matrix(0.96303536,0,0,0.96303535,8.2789237,10.176851)"
       id="g5952">
      <path
         transform="matrix(0.91827128,0.39595184,-0.39595184,0.91827128,0,0)"
         style="opacity:1;fill:#241c1c;fill-opacity:1;stroke:none;stroke-width:0.5;stroke-linejoin:miter;stroke-opacity:1"
         d="m 62.381916,-37.610718 202.268674,0 0,202.268678 -202.268674,0 z"
         id="rect5949" />
      <path
         id="Swag"
         style="font-style:normal;font-variant:normal;font-weight:normal;font-stretch:normal;font-size:40px;line-height:125%;font-family:'Sonsie One';-inkscape-font-specification:'Sonsie One';letter-spacing:0px;word-spacing:0px;fill:#ffffff;fill-opacity:1;stroke:none;stroke-width:1px;stroke-linecap:butt;stroke-linejoin:miter;stroke-opacity:1"
         d="m 15.165817,172.5742 c -1.462581,-0.70205 -2.193873,-2.16461 -2.193873,-4.38775 0,-2.22312 1.784348,-6.96186 5.353045,-14.21627 3.568694,-7.31289 6.376846,-10.96933 8.424455,-10.96933 1.170065,0 2.983661,0.81905 5.440793,2.45711 2.457135,1.5796 5.294542,3.5102 8.512211,5.79183 3.27618,2.28162 6.815619,4.53399 10.618329,6.7571 9.243501,5.49933 18.223738,8.24896 26.94071,8.24896 4.329236,0 7.429905,-0.87755 9.302006,-2.63264 1.872104,-1.75511 2.808152,-3.51019 2.808152,-5.26528 0,-1.8136 -0.994551,-3.83196 -2.983663,-6.05508 -1.989107,-2.28163 -4.592498,-4.62175 -7.810172,-7.0204 -3.159172,-2.39862 -6.669363,-4.91424 -10.530571,-7.54691 -3.861211,-2.69112 -7.722419,-5.52854 -11.58363,-8.51219 -3.86121,-2.98368 -7.371399,-5.96733 -10.530571,-8.95098 -7.195893,-6.78638 -10.793837,-13.39725 -10.793837,-19.83259 0,-4.563259 1.199315,-8.687719 3.597949,-12.373419 2.457132,-3.68571 5.557801,-6.66936 9.302001,-8.95099 3.802708,-2.28163 8.102689,-4.18298 12.899953,-5.70405 8.599969,-2.80817 17.463197,-4.21224 26.589692,-4.21224 2.515633,0 4.387737,0.38025 5.616307,1.14081 1.228564,0.76054 1.842848,1.63809 1.842848,2.63264 0,0.99456 -0.438792,2.51565 -1.316323,4.56326 -0.87755,1.9891 -1.316323,3.77346 -1.316323,5.35304 0,1.57958 1.053057,3.59795 3.159172,6.05508 2.164618,2.45714 4.943523,4.97276 8.336703,7.54691 3.39319,2.57413 7.13739,5.323789 11.23261,8.248939 4.09523,2.92516 8.19045,6.02584 12.28567,9.30202 4.09522,3.27618 7.83942,6.61084 11.23261,10.00404 7.66391,7.66391 11.49587,15.0938 11.49587,22.2897 0,7.13738 -1.8721,13.10471 -5.6163,17.90196 -3.6857,4.79728 -8.83398,8.51222 -15.44484,11.14486 -6.61086,2.63264 -13.86525,4.53399 -21.76318,5.70407 -7.89793,1.22857 -17.521705,1.84284 -28.871319,1.84284 -11.349616,0 -23.869293,-1.17005 -37.559038,-3.51019 C 28.212021,177.02043 19.319542,174.7388 15.165817,172.5742 Z M 160.4877,86.662281 c -7.89958,-8.9233 -17.17068,-15.91286 -28.5203,-20.3591 -11.29111,-4.50475 -23.0795,-6.75711 -35.365165,-6.75711 -22.523723,0 -44.228404,4.24146 -65.114035,12.72444 -2.808151,1.11155 -4.797258,1.66733 -5.967323,1.66733 -2.340127,0 -3.510191,-1.11157 -3.510191,-3.33469 0,-1.81359 1.550334,-3.9782 4.651,-6.49385 3.159172,-2.51562 7.663921,-5.08977 13.514237,-7.72241 5.90882,-2.69115 12.57818,-5.17753 20.008085,-7.45916 16.965917,-5.20677 35.160404,-7.81017 54.583462,-7.81017 28.72506,0 50.40686,4.02519 65.02628,12.11017 0.82551,0.45653 1.14197,1.87086 1.05306,4.21222 -0.0866,2.28073 -1.11156,5.82107 -3.15917,10.61831 -2.04761,4.79728 -4.534,9.24352 -7.45916,13.33874 -2.86666,4.09522 -5.33552,5.92393 -7.3714,6.14284 -0.69412,0.0746 -1.60001,-0.007 -2.36938,-0.87756 z" />
      <path
         id="Arch"
         style="font-style:normal;font-variant:normal;font-weight:normal;font-stretch:normal;font-size:40px;line-height:125%;font-family:'Sonsie One';-inkscape-font-specification:'Sonsie One';letter-spacing:0px;word-spacing:0px;fill:#1793d1;fill-opacity:1;stroke:none;stroke-width:1px;stroke-linecap:butt;stroke-linejoin:miter;stroke-opacity:1"
         d="m 199.94871,197.85798 c -14.85684,0 -22.28523,-4.92994 -22.28523,-14.78988 0,-5.62154 3.54689,-16.84223 10.64069,-33.66212 7.09381,-16.86454 10.64072,-28.55372 10.64072,-35.06751 0,-3.65844 -1.36075,-6.24612 -4.08228,-7.76303 -2.67693,-1.56154 -6.58075,-2.34229 -11.71148,-2.34229 -5.08611,0 -10.26146,0.44615 -15.52607,1.33844 -5.26459,0.8923 -8.65535,1.33845 -10.17226,1.33845 -1.4723,0 -2.20843,-0.66922 -2.20843,-2.00767 0,-1.74002 3.14534,-4.03767 9.43606,-6.89306 12.09072,-5.532255 25.40833,-8.298397 39.95291,-8.298397 11.51068,0 20.12142,2.074577 25.83217,6.223812 5.75533,4.149195 8.63299,10.886095 8.63299,20.210645 0,5.53228 -0.98152,12.46995 -2.94457,20.81296 -1.9631,8.29842 -3.92615,16.10608 -5.88918,23.42296 -1.91849,7.31689 -2.87773,12.3361 -2.87773,15.05764 0,2.72149 0.51306,4.61765 1.53922,5.68844 1.29386,1.33845 3.79233,2.00767 7.49537,2.00767 2.27539,0 3.54692,0.24532 3.81457,0.73614 0.31213,0.49076 0.46835,1.00382 0.46835,1.53918 0,2.05232 -0.9369,3.72541 -2.81072,5.01929 -7.0938,4.95224 -19.74219,7.42833 -37.94517,7.42833 z m -38.94902,-48.452 17.13221,-0.40161 c 3.12308,0 4.68459,0.9146 4.68459,2.74384 0,1.29384 -0.73613,2.32 -2.20843,3.07847 -5.17536,2.63224 -14.0984,4.30532 -26.76909,5.01918 -3.61383,7.13839 -5.42073,13.40683 -5.42073,18.80529 0,2.40921 0.31245,4.63998 0.93691,6.69226 0.62461,2.0077 0.93691,3.45771 0.93691,4.34997 0,2.36464 -1.49462,3.97076 -4.48383,4.81845 -2.98919,0.80305 -7.38379,1.20459 -13.18376,1.20459 -5.75536,0 -9.54765,-0.51306 -11.37686,-1.53918 -1.82923,-1.07077 -2.74383,-2.94461 -2.74383,-5.62154 0,-4.99688 1.45,-10.50685 4.34997,-16.5299 2.94461,-6.02307 6.69229,-11.7784 11.24303,-17.26607 4.55073,-5.53228 9.59226,-10.95301 15.12451,-16.26222 5.53229,-5.3092 10.9084,-9.88225 16.12839,-13.71915 11.59993,-8.61072 19.49682,-12.91608 23.69065,-12.91608 1.91846,0 2.87767,0.57997 2.87767,1.73999 0,1.15998 -0.93691,2.45382 -2.81075,3.88151 -3.97076,2.89997 -8.72227,7.31688 -14.25455,13.2507 -5.53225,5.93382 -10.46222,12.15763 -14.78992,18.67143 l 0.93691,0 z" />
    </g>
  </g>
</svg>
